<?xml version="1.0" encoding="UTF-8"?>
<svg version="1.1" xmlns="http://www.w3.org/2000/svg" width="159" height="159">
<path d="M0 0 C52.47 0 104.94 0 159 0 C159 52.47 159 104.94 159 159 C106.53 159 54.06 159 0 159 C0 106.53 0 54.06 0 0 Z " fill="#A51C30" transform="translate(0,0)"/>
<path d="M0 0 C0.66 0 1.32 0 2 0 C1.690625 0.763125 1.38125 1.52625 1.0625 2.3125 C-0.54216288 6.37135317 -1.06713067 8.87010426 -0.5625 13.1875 C-0.40974609 14.53908203 -0.40974609 14.53908203 -0.25390625 15.91796875 C-0.17011719 16.60503906 -0.08632812 17.29210937 0 18 C-0.66 18 -1.32 18 -2 18 C-3.25664978 15.09399739 -4 13.20395416 -4 10 C-6.60140956 11.66369252 -6.60140956 11.66369252 -9 14 C-9.41870553 16.66928121 -9.41870553 16.66928121 -9 19 C-9.495 18.01 -9.495 18.01 -10 17 C-10.66 17 -11.32 17 -12 17 C-12.66 18.32 -13.32 19.64 -14 21 C-13.67 21 -13.34 21 -13 21 C-6.9348087 21.59422482 -1.34477109 22.86332795 4.5 24.5625 C5.32242188 24.79646484 6.14484375 25.03042969 6.9921875 25.27148438 C8.99629058 25.84242072 10.99836591 26.42046705 13 27 C13 27.99 13 28.98 13 30 C1.17373183 33.46187404 -10.65479895 36.91588027 -22.5 40.3125 C-23.34006592 40.55436035 -24.18013184 40.7962207 -25.0456543 41.04541016 C-30.00869349 42.46456434 -34.98538805 43.77510052 -40 45 C-40 45.33 -40 45.66 -40 46 C-38.89543457 45.68192383 -38.89543457 45.68192383 -37.76855469 45.35742188 C-34.43057147 44.39950175 -31.09033975 43.44966849 -27.75 42.5 C-26.01169922 41.99919922 -26.01169922 41.99919922 -24.23828125 41.48828125 C-23.12324219 41.17246094 -22.00820312 40.85664062 -20.859375 40.53125 C-19.83295898 40.23798828 -18.80654297 39.94472656 -17.74902344 39.64257812 C-15 39 -15 39 -11 39 C-10.90077415 43.18084291 -10.82836626 47.36105371 -10.78027344 51.54272461 C-10.76021579 52.96374457 -10.73296222 54.38468259 -10.69824219 55.80541992 C-10.64945989 57.85355895 -10.62697461 59.90060275 -10.609375 61.94921875 C-10.5779541 63.79519653 -10.5779541 63.79519653 -10.54589844 65.6784668 C-11.08273285 69.60515077 -12.26474658 71.19557263 -15 74 C-26.46284695 82.22057175 -42.24203145 82.18033672 -55.6875 82.1875 C-56.87794922 82.19974609 -58.06839844 82.21199219 -59.29492188 82.22460938 C-79.61336707 82.25775529 -79.61336707 82.25775529 -86 78 C-84.02 76.68 -82.04 75.36 -80 74 C-82.97 74.99 -82.97 74.99 -86 76 C-86 75.34 -86 74.68 -86 74 C-86.53625 74.350625 -87.0725 74.70125 -87.625 75.0625 C-90.89694852 76.35405863 -92.64864034 76.02592643 -96 75 C-99.32598422 72.35270088 -100.84174707 70.92603486 -101.56762695 66.6784668 C-101.54144287 65.44781494 -101.51525879 64.21716309 -101.48828125 62.94921875 C-101.48120651 62.29041214 -101.47413177 61.63160553 -101.46684265 60.95283508 C-101.43900979 58.86319966 -101.37630819 56.77631524 -101.3125 54.6875 C-101.28740205 53.26501286 -101.26459148 51.84248341 -101.24414062 50.41992188 C-101.18922446 46.94573139 -101.10303685 43.4731345 -101 40 C-92.75295898 41.22447955 -84.94046427 43.36822325 -76.99975586 45.88623047 C-75.04319226 46.50611716 -73.08346025 47.11506697 -71.12304688 47.72265625 C-60.71709425 50.98494662 -60.71709425 50.98494662 -57 53 C-57 53.33 -57 53.66 -57 54 C-54.03 51.69 -51.06 49.38 -48 47 C-49.134375 47.515625 -50.26875 48.03125 -51.4375 48.5625 C-59.92343405 52.41974275 -70.93721724 47.50870951 -79.25 45.0625 C-80.50296875 44.70220703 -81.7559375 44.34191406 -83.046875 43.97070312 C-92.26492521 41.29687766 -92.26492521 41.29687766 -95.52075195 39.98193359 C-98.30027772 38.88107169 -101.06978509 38.12377906 -103.96484375 37.37890625 C-105.09470703 37.08306641 -106.22457031 36.78722656 -107.38867188 36.48242188 C-109.74994973 35.87033499 -112.11192929 35.26094858 -114.47460938 34.65429688 C-115.60576172 34.35716797 -116.73691406 34.06003906 -117.90234375 33.75390625 C-118.92835693 33.48908447 -119.95437012 33.2242627 -121.01147461 32.95141602 C-124.20851638 31.93361749 -127.04046174 30.57122871 -130 29 C-129 27 -129 27 -125.453125 25.73046875 C-123.72151663 25.20690676 -121.98677557 24.6936574 -120.25 24.1875 C-119.28441162 23.90197266 -118.31882324 23.61644531 -117.32397461 23.32226562 C-114.99613885 22.63633441 -112.66716078 21.95427452 -110.33740234 21.27490234 C-106.12663116 20.04285497 -101.926384 18.77668527 -97.72567749 17.51081848 C-93.69332638 16.29933364 -89.65672073 15.10245312 -85.6192627 13.90811157 C-83.58723395 13.30443082 -81.55669499 12.69571172 -79.52770996 12.08187866 C-76.62811002 11.20642093 -73.72322041 10.35115052 -70.81640625 9.5 C-69.94623367 9.23266556 -69.0760611 8.96533112 -68.17951965 8.68989563 C-59.66268363 6.23848551 -52.91581577 7.82196181 -44.5625 10.28515625 C-43.79695801 10.50570175 -43.03141602 10.72624725 -42.24267578 10.95347595 C-39.82677973 11.65085963 -37.41339697 12.35652229 -35 13.0625 C-33.35042025 13.54026573 -31.70068196 14.01748447 -30.05078125 14.49414062 C-26.03199505 15.65644927 -22.01543915 16.82618294 -18 18 C-18 21 -18 21 -19.53125 22.82421875 C-20.1809375 23.43910156 -20.830625 24.05398437 -21.5 24.6875 C-22.1496875 25.31011719 -22.799375 25.93273437 -23.46875 26.57421875 C-24.22671875 27.27998047 -24.22671875 27.27998047 -25 28 C-20.70675009 24.62231347 -17.24434829 21.28849629 -14.19921875 16.74609375 C-12.31648289 14.00478128 -10.1579541 11.52788909 -8 9 C-10.63904371 7.58622659 -13.07120629 6.62759865 -16 6 C-16 5.34 -16 4.68 -16 4 C-14.64455078 3.94392578 -14.64455078 3.94392578 -13.26171875 3.88671875 C-12.08222656 3.82097656 -10.90273437 3.75523438 -9.6875 3.6875 C-8.51574219 3.62949219 -7.34398437 3.57148437 -6.13671875 3.51171875 C-2.81323861 2.96953208 -2.06825268 2.49662864 0 0 Z " fill="#FDFBFB" transform="translate(141,34)"/>
<path d="M0 0 C0.09922585 4.18084291 0.17163374 8.36105371 0.21972656 12.54272461 C0.23978421 13.96374457 0.26703778 15.38468259 0.30175781 16.80541992 C0.35054011 18.85355895 0.37302539 20.90060275 0.390625 22.94921875 C0.4220459 24.79519653 0.4220459 24.79519653 0.45410156 26.6784668 C-0.08273285 30.60515077 -1.26474658 32.19557263 -4 35 C-15.46284695 43.22057175 -31.24203145 43.18033672 -44.6875 43.1875 C-45.87794922 43.19974609 -47.06839844 43.21199219 -48.29492188 43.22460938 C-68.61336707 43.25775529 -68.61336707 43.25775529 -75 39 C-74.00742188 38.39414063 -73.01484375 37.78828125 -71.9921875 37.1640625 C-61.45387396 30.68457382 -51.21558109 23.90332547 -41.484375 16.25390625 C-40.90969482 15.80337891 -40.33501465 15.35285156 -39.74291992 14.88867188 C-38.16643477 13.64452436 -36.60040336 12.38716296 -35.03515625 11.12890625 C-28.72796101 6.70494048 -21.64769326 4.88271134 -14.3125 2.8125 C-13.37599609 2.53986328 -12.43949219 2.26722656 -11.47460938 1.98632812 C-10.12012695 1.60057617 -10.12012695 1.60057617 -8.73828125 1.20703125 C-7.92399658 0.9747583 -7.10971191 0.74248535 -6.27075195 0.50317383 C-4 0 -4 0 0 0 Z " fill="#FEFCFC" transform="translate(130,73)"/>
<path d="M0 0 C0.66 0 1.32 0 2 0 C1.5359375 1.1446875 1.5359375 1.1446875 1.0625 2.3125 C-0.54216288 6.37135317 -1.06713067 8.87010426 -0.5625 13.1875 C-0.40974609 14.53908203 -0.40974609 14.53908203 -0.25390625 15.91796875 C-0.12822266 16.94857422 -0.12822266 16.94857422 0 18 C-0.66 18 -1.32 18 -2 18 C-3.25664978 15.09399739 -4 13.20395416 -4 10 C-6.60140956 11.66369252 -6.60140956 11.66369252 -9 14 C-9.41870553 16.66928121 -9.41870553 16.66928121 -9 19 C-9.495 18.01 -9.495 18.01 -10 17 C-10.66 17 -11.32 17 -12 17 C-12.66 18.32 -13.32 19.64 -14 21 C-13.67 21 -13.34 21 -13 21 C-6.9348087 21.59422482 -1.34477109 22.86332795 4.5 24.5625 C5.32242188 24.79646484 6.14484375 25.03042969 6.9921875 25.27148438 C8.99629058 25.84242072 10.99836591 26.42046705 13 27 C13 27.99 13 28.98 13 30 C1.17373183 33.46187404 -10.65479895 36.91588027 -22.5 40.3125 C-23.34006592 40.55436035 -24.18013184 40.7962207 -25.0456543 41.04541016 C-25.84527588 41.27405762 -26.64489746 41.50270508 -27.46875 41.73828125 C-28.61150391 42.07013428 -28.61150391 42.07013428 -29.77734375 42.40869141 C-32 43 -32 43 -34.19140625 43.39990234 C-38.80609254 44.26785152 -40.85495433 45.52509457 -43.60498047 49.30566406 C-46.48690915 52.80594146 -50.40002604 55.25028116 -54.0625 57.875 C-54.90868896 58.48706299 -55.75487793 59.09912598 -56.62670898 59.72973633 C-59.07818044 61.49547824 -61.53858204 63.24816594 -64 65 C-64.62519531 65.4532666 -65.25039062 65.9065332 -65.89453125 66.37353516 C-72.33281421 71.03827472 -78.17686606 74.33844943 -86 76 C-86 75.34 -86 74.68 -86 74 C-86.53625 74.350625 -87.0725 74.70125 -87.625 75.0625 C-90.89694852 76.35405863 -92.64864034 76.02592643 -96 75 C-99.32598422 72.35270088 -100.84174707 70.92603486 -101.56762695 66.6784668 C-101.54144287 65.44781494 -101.51525879 64.21716309 -101.48828125 62.94921875 C-101.48120651 62.29041214 -101.47413177 61.63160553 -101.46684265 60.95283508 C-101.43900979 58.86319966 -101.37630819 56.77631524 -101.3125 54.6875 C-101.28740205 53.26501286 -101.26459148 51.84248341 -101.24414062 50.41992188 C-101.18922446 46.94573139 -101.10303685 43.4731345 -101 40 C-92.75295898 41.22447955 -84.94046427 43.36822325 -76.99975586 45.88623047 C-75.04319226 46.50611716 -73.08346025 47.11506697 -71.12304688 47.72265625 C-60.71709425 50.98494662 -60.71709425 50.98494662 -57 53 C-57 53.33 -57 53.66 -57 54 C-55.57751888 52.94529712 -54.16228115 51.88082235 -52.75 50.8125 C-51.56664063 49.92498047 -51.56664063 49.92498047 -50.359375 49.01953125 C-47.93551458 47.0816744 -47.93551458 47.0816744 -46.1484375 44.6171875 C-43.42024904 41.29375792 -40.28820245 38.89879258 -36.875 36.3125 C-32.27337306 32.84860521 -32.27337306 32.84860521 -28 29 C-27.278125 28.773125 -26.55625 28.54625 -25.8125 28.3125 C-19.95832347 25.58055095 -16.1176447 20.52673379 -13 15 C-11.39038059 12.94516671 -9.70327067 10.97947672 -8 9 C-10.63904371 7.58622659 -13.07120629 6.62759865 -16 6 C-16 5.34 -16 4.68 -16 4 C-14.64455078 3.94392578 -14.64455078 3.94392578 -13.26171875 3.88671875 C-12.08222656 3.82097656 -10.90273437 3.75523438 -9.6875 3.6875 C-8.51574219 3.62949219 -7.34398437 3.57148437 -6.13671875 3.51171875 C-2.81323861 2.96953208 -2.06825268 2.49662864 0 0 Z " fill="#FDFCFC" transform="translate(141,34)"/>
<path d="M0 0 C0.66 0 1.32 0 2 0 C1.5359375 1.1446875 1.5359375 1.1446875 1.0625 2.3125 C-0.54216288 6.37135317 -1.06713067 8.87010426 -0.5625 13.1875 C-0.40974609 14.53908203 -0.40974609 14.53908203 -0.25390625 15.91796875 C-0.12822266 16.94857422 -0.12822266 16.94857422 0 18 C-0.66 18 -1.32 18 -2 18 C-3.25664978 15.09399739 -4 13.20395416 -4 10 C-6.60140956 11.66369252 -6.60140956 11.66369252 -9 14 C-9.41870553 16.66928121 -9.41870553 16.66928121 -9 19 C-9.495 18.01 -9.495 18.01 -10 17 C-10.66 17 -11.32 17 -12 17 C-12.66 18.32 -13.32 19.64 -14 21 C-13.67 21 -13.34 21 -13 21 C-6.9348087 21.59422482 -1.34477109 22.86332795 4.5 24.5625 C5.32242188 24.79646484 6.14484375 25.03042969 6.9921875 25.27148438 C8.99629058 25.84242072 10.99836591 26.42046705 13 27 C13 27.99 13 28.98 13 30 C1.17373183 33.46187404 -10.65479895 36.91588027 -22.5 40.3125 C-23.34006592 40.55436035 -24.18013184 40.7962207 -25.0456543 41.04541016 C-25.84527588 41.27405762 -26.64489746 41.50270508 -27.46875 41.73828125 C-28.23058594 41.9595166 -28.99242187 42.18075195 -29.77734375 42.40869141 C-32 43 -32 43 -34.19140625 43.39990234 C-38.80609254 44.26785152 -40.85495433 45.52509457 -43.60498047 49.30566406 C-46.48715339 52.80623811 -50.40048263 55.24910261 -54.0625 57.875 C-54.90143799 58.4848877 -55.74037598 59.09477539 -56.60473633 59.72314453 C-62.95961102 64.31836729 -69.40210079 68.75943404 -76 73 C-76.66 72.67 -77.32 72.34 -78 72 C-77.34 71.01 -76.68 70.02 -76 69 C-76 68.01 -76 67.02 -76 66 C-73.80614908 64.16832744 -71.65953444 62.54830186 -69.3125 60.9375 C-68.68666016 60.49083984 -68.06082031 60.04417969 -67.41601562 59.58398438 C-64.02781245 57.21046823 -60.87138743 55.49399179 -57 54 C-54.653814 52.47127453 -54.653814 52.47127453 -52.4375 50.6875 C-51.69371094 50.11386719 -50.94992188 49.54023437 -50.18359375 48.94921875 C-47.92502108 47.05335928 -47.92502108 47.05335928 -46.16796875 44.625 C-43.42680251 41.30596628 -40.29233703 38.90192548 -36.875 36.3125 C-32.27337306 32.84860521 -32.27337306 32.84860521 -28 29 C-27.278125 28.773125 -26.55625 28.54625 -25.8125 28.3125 C-19.95832347 25.58055095 -16.1176447 20.52673379 -13 15 C-11.39038059 12.94516671 -9.70327067 10.97947672 -8 9 C-10.63904371 7.58622659 -13.07120629 6.62759865 -16 6 C-16 5.34 -16 4.68 -16 4 C-14.64455078 3.94392578 -14.64455078 3.94392578 -13.26171875 3.88671875 C-12.08222656 3.82097656 -10.90273437 3.75523438 -9.6875 3.6875 C-8.51574219 3.62949219 -7.34398437 3.57148437 -6.13671875 3.51171875 C-2.81323861 2.96953208 -2.06825268 2.49662864 0 0 Z " fill="#D08E93" transform="translate(141,34)"/>
<path d="M0 0 C6.06784496 0.48515427 11.66893605 1.86731284 17.5 3.5625 C18.32242188 3.79646484 19.14484375 4.03042969 19.9921875 4.27148438 C21.99629058 4.84242072 23.99836591 5.42046705 26 6 C26 6.99 26 7.98 26 9 C20.2437284 10.68501905 14.48619421 12.36556176 8.7265625 14.0390625 C4.42502211 15.28949588 0.12855839 16.55524303 -4.1640625 17.8359375 C-6.04682719 18.39078725 -7.9296375 18.94548226 -9.8125 19.5 C-10.69446045 19.76699707 -11.5764209 20.03399414 -12.48510742 20.30908203 C-13.70870972 20.66655518 -13.70870972 20.66655518 -14.95703125 21.03125 C-16.02401245 21.34932617 -16.02401245 21.34932617 -17.11254883 21.67382812 C-19 22 -19 22 -22 21 C-21.5560791 20.62190186 -21.1121582 20.24380371 -20.65478516 19.85424805 C-18.64156167 18.13581612 -16.63325214 16.41173838 -14.625 14.6875 C-13.92632812 14.09259766 -13.22765625 13.49769531 -12.5078125 12.88476562 C-11.8375 12.30791016 -11.1671875 11.73105469 -10.4765625 11.13671875 C-9.85861816 10.60780029 -9.24067383 10.07888184 -8.60400391 9.53393555 C-6.77088644 7.89245039 -6.77088644 7.89245039 -5 5 C-4.34 5 -3.68 5 -3 5 C-2.690625 4.360625 -2.38125 3.72125 -2.0625 3.0625 C-1 1 -1 1 0 0 Z " fill="#FDFAFB" transform="translate(128,55)"/>
<path d="M0 0 C9.7118585 1.07909539 9.7118585 1.07909539 14.75390625 3.13085938 C19.56204054 4.9913983 24.54906461 6.32623988 29.5 7.75 C30.58925781 8.07871094 31.67851563 8.40742187 32.80078125 8.74609375 C41.55195397 11.25398726 47.37080831 11.23594688 56 8 C52.50640535 11.59634744 48.88901869 14.83451967 45 18 C44.34 17.67 43.68 17.34 43 17 C43.66 16.34 44.32 15.68 45 15 C43.73893433 14.62246582 43.73893433 14.62246582 42.45239258 14.23730469 C39.26705428 13.28342996 36.08184979 12.32911075 32.89672852 11.37451172 C31.53056912 10.96515999 30.16435995 10.55597431 28.7980957 10.14697266 C19.85347067 7.46917759 10.91958571 4.76030291 2 2 C2.11833202 6.21771839 2.24258602 10.43520823 2.37231445 14.65258789 C2.41560793 16.08711003 2.45728699 17.52168184 2.49731445 18.95629883 C2.55515267 21.0191952 2.61880753 23.08184283 2.68359375 25.14453125 C2.72025146 26.38565674 2.75690918 27.62678223 2.79467773 28.90551758 C2.87144121 32.03553347 2.87144121 32.03553347 4 35 C7.54220546 36.82170566 11.07765636 37.45269624 15 38 C14 41 14 41 12.21484375 42.16796875 C6.85589334 44.5670872 2.87695341 45.61862668 -3 45 C-5 43 -5 43 -5.3125 39.8125 C-4.95717884 35.47758191 -3.89596629 32.87093117 -2 29 C-1.01 29.33 -0.02 29.66 1 30 C0.67 20.1 0.34 10.2 0 0 Z " fill="#A61D31" transform="translate(38,72)"/>
<path d="M0 0 C0.66 0 1.32 0 2 0 C1.690625 0.763125 1.38125 1.52625 1.0625 2.3125 C-0.54216288 6.37135317 -1.06713067 8.87010426 -0.5625 13.1875 C-0.40974609 14.53908203 -0.40974609 14.53908203 -0.25390625 15.91796875 C-0.17011719 16.60503906 -0.08632812 17.29210937 0 18 C-0.66 18 -1.32 18 -2 18 C-3.25664978 15.09399739 -4 13.20395416 -4 10 C-6.60140956 11.66369252 -6.60140956 11.66369252 -9 14 C-9.41870553 16.66928121 -9.41870553 16.66928121 -9 19 C-9.33 18.34 -9.66 17.68 -10 17 C-10.66 17 -11.32 17 -12 17 C-13.52299523 19.93720508 -14.80100302 22.9168649 -16 26 C-16.66 26 -17.32 26 -18 26 C-18.23074219 26.56460938 -18.46148437 27.12921875 -18.69921875 27.7109375 C-20.33808444 30.59494739 -22.34511014 32.41285737 -24.8125 34.625 C-26.09060547 35.78902344 -26.09060547 35.78902344 -27.39453125 36.9765625 C-29.91114273 38.93099241 -32.00819815 39.97394911 -35 41 C-35.99 41.495 -35.99 41.495 -37 42 C-33.66565717 34.9695696 -30.09729678 30.3313842 -23 27 C-18.82952447 23.46222482 -15.6869403 19.76321235 -13 15 C-11.39038059 12.94516671 -9.70327067 10.97947672 -8 9 C-10.63904371 7.58622659 -13.07120629 6.62759865 -16 6 C-16 5.34 -16 4.68 -16 4 C-14.64455078 3.94392578 -14.64455078 3.94392578 -13.26171875 3.88671875 C-12.08222656 3.82097656 -10.90273437 3.75523438 -9.6875 3.6875 C-8.51574219 3.62949219 -7.34398437 3.57148437 -6.13671875 3.51171875 C-2.81323861 2.96953208 -2.06825268 2.49662864 0 0 Z " fill="#DBA8AC" transform="translate(141,34)"/>
<path d="M0 0 C1.32 0.66 2.64 1.32 4 2 C4.04898437 3.24136719 4.09796875 4.48273438 4.1484375 5.76171875 C4.22349799 7.40366694 4.29904439 9.04559297 4.375 10.6875 C4.4059375 11.50412109 4.436875 12.32074219 4.46875 13.16210938 C4.68155568 17.54235953 5.11492319 20.97347593 7 25 C7.25 27.6875 7.25 27.6875 7 30 C5 32 5 32 2.5 32.25 C0 32 0 32 -2 30 C-2.33333333 24.66666667 -2.33333333 24.66666667 -1 22 C-0.84777027 20.33434251 -0.75082785 18.66343504 -0.68359375 16.9921875 C-0.64169922 16.00605469 -0.59980469 15.01992187 -0.55664062 14.00390625 C-0.51732422 12.97136719 -0.47800781 11.93882813 -0.4375 10.875 C-0.39431641 9.83472656 -0.35113281 8.79445313 -0.30664062 7.72265625 C-0.2003712 5.14857472 -0.09833417 2.57439492 0 0 Z " fill="#FAF5F5" transform="translate(15,66)"/>
<path d="M0 0 C9.7118585 1.07909539 9.7118585 1.07909539 14.75390625 3.13085938 C19.56204054 4.9913983 24.54906461 6.32623988 29.5 7.75 C30.58925781 8.07871094 31.67851563 8.40742187 32.80078125 8.74609375 C41.55195397 11.25398726 47.37080831 11.23594688 56 8 C52.50640535 11.59634744 48.88901869 14.83451967 45 18 C44.34 17.67 43.68 17.34 43 17 C43.66 16.34 44.32 15.68 45 15 C43.73893433 14.62246582 43.73893433 14.62246582 42.45239258 14.23730469 C39.26705428 13.28342996 36.08184979 12.32911075 32.89672852 11.37451172 C31.53056912 10.96515999 30.16435995 10.55597431 28.7980957 10.14697266 C26.80926903 9.55156813 24.82063557 8.95552173 22.83203125 8.359375 C21.04889526 7.82521973 21.04889526 7.82521973 19.22973633 7.28027344 C13.48043877 5.54005315 7.74126427 3.76654285 2 2 C2 11.24 2 20.48 2 30 C1.67 30 1.34 30 1 30 C0.67 20.1 0.34 10.2 0 0 Z " fill="#B03D45" transform="translate(38,72)"/>
<path d="M0 0 C0.66 0 1.32 0 2 0 C1.690625 0.763125 1.38125 1.52625 1.0625 2.3125 C-0.54216288 6.37135317 -1.06713067 8.87010426 -0.5625 13.1875 C-0.46066406 14.08855469 -0.35882813 14.98960938 -0.25390625 15.91796875 C-0.17011719 16.60503906 -0.08632812 17.29210937 0 18 C-0.66 18 -1.32 18 -2 18 C-3.25664978 15.09399739 -4 13.20395416 -4 10 C-7.52381687 12.54604597 -7.52381687 12.54604597 -10 16 C-10.99 15.67 -11.98 15.34 -13 15 C-11.35 13.02 -9.7 11.04 -8 9 C-10.63904371 7.58622659 -13.07120629 6.62759865 -16 6 C-16 5.34 -16 4.68 -16 4 C-14.64455078 3.94392578 -14.64455078 3.94392578 -13.26171875 3.88671875 C-12.08222656 3.82097656 -10.90273437 3.75523438 -9.6875 3.6875 C-8.51574219 3.62949219 -7.34398437 3.57148437 -6.13671875 3.51171875 C-2.81323861 2.96953208 -2.06825268 2.49662864 0 0 Z " fill="#F0DFE1" transform="translate(141,34)"/>
<path d="M0 0 C-0.33 1.32 -0.66 2.64 -1 4 C-0.34 4.33 0.32 4.66 1 5 C-10.52164009 13.44646925 -10.52164009 13.44646925 -16 17 C-16.66 16.67 -17.32 16.34 -18 16 C-17.34 15.01 -16.68 14.02 -16 13 C-16 12.01 -16 11.02 -16 10 C-13.74326922 8.12921143 -11.53296304 6.46414588 -9.125 4.8125 C-8.14853516 4.11737305 -8.14853516 4.11737305 -7.15234375 3.40820312 C-2.28348214 0 -2.28348214 0 0 0 Z " fill="#E2B9BC" transform="translate(81,90)"/>
<path d="M0 0 C-4.09088167 1.16681635 -8.18427181 2.32422226 -12.28027344 3.47290039 C-13.67390929 3.86516503 -15.06682078 4.26001256 -16.45898438 4.6574707 C-18.45779519 5.2276443 -20.45900927 5.78854146 -22.4609375 6.34765625 C-23.66540527 6.68804932 -24.86987305 7.02844238 -26.11083984 7.37915039 C-29 8 -29 8 -31 7 C-27.57666931 4.75038269 -24.97085432 3.792001 -21 3 C-19.64027277 2.59340563 -18.28511264 2.17137916 -16.93359375 1.73828125 C-16.20076172 1.50689453 -15.46792969 1.27550781 -14.71289062 1.03710938 C-13.18899901 0.55181857 -11.6681352 0.05692109 -10.15039062 -0.44726562 C-9.41884766 -0.67478516 -8.68730469 -0.90230469 -7.93359375 -1.13671875 C-7.27415771 -1.35030029 -6.61472168 -1.56388184 -5.93530273 -1.78393555 C-3.41934765 -2.06482621 -2.13312325 -1.28165527 0 0 Z " fill="#B1404A" transform="translate(130,73)"/>
<path d="M0 0 C0.66 0.33 1.32 0.66 2 1 C0.03422107 5.55233014 -1.76735287 8.34229133 -6 11 C-9.3125 11.75 -9.3125 11.75 -12 12 C-9.47628658 6.44783047 -4.79152136 3.485656 0 0 Z " fill="#E9CACC" transform="translate(90,83)"/>
<path d="M0 0 C0.33 0 0.66 0 1 0 C1.33 1.98 1.66 3.96 2 6 C7.82449038 6.41603503 11.26419543 5.7846847 16.3359375 2.875 C18 2 18 2 20 2 C19 5 19 5 17.21484375 6.16796875 C11.85589334 8.5670872 7.87695341 9.61862668 2 9 C0 7 0 7 -0.125 3.375 C-0.08375 2.26125 -0.0425 1.1475 0 0 Z " fill="#ECD6D8" transform="translate(33,108)"/>
<path d="M0 0 C0.66 0.33 1.32 0.66 2 1 C0.02 3.97 0.02 3.97 -2 7 C-0.68 6.34 0.64 5.68 2 5 C1.34 6.65 0.68 8.3 0 10 C-2.31 10 -4.62 10 -7 10 C-7.33 9.01 -7.66 8.02 -8 7 C-5.36 4.69 -2.72 2.38 0 0 Z " fill="#CC858A" transform="translate(107,68)"/>
<path d="M0 0 C0.58265625 0.22300781 1.1653125 0.44601563 1.765625 0.67578125 C-1.65825592 4.50247168 -4.24162443 6.39856599 -9.234375 7.67578125 C-9.234375 5.67578125 -9.234375 5.67578125 -7.84375 4.1328125 C-6.92335937 3.31876953 -6.92335937 3.31876953 -5.984375 2.48828125 C-5.38109375 1.93785156 -4.7778125 1.38742188 -4.15625 0.8203125 C-2.234375 -0.32421875 -2.234375 -0.32421875 0 0 Z " fill="#E7C6C8" transform="translate(64.234375,102.32421875)"/>
<path d="M0 0 C-0.33 1.32 -0.66 2.64 -1 4 C-0.34 4.33 0.32 4.66 1 5 C-3.75 9 -3.75 9 -6 9 C-6.33 7.35 -6.66 5.7 -7 4 C-2.25 0 -2.25 0 0 0 Z " fill="#CB7F86" transform="translate(81,90)"/>
<path d="M0 0 C0.66 0.33 1.32 0.66 2 1 C-3.445 5.455 -3.445 5.455 -9 10 C-9.66 9.67 -10.32 9.34 -11 9 C-10.34 8.34 -9.68 7.68 -9 7 C-9.99 6.34 -10.98 5.68 -12 5 C-11.236875 4.87625 -10.47375 4.7525 -9.6875 4.625 C-6.79732864 4.11897208 -6.79732864 4.11897208 -4 2 C-1.9375 0.8125 -1.9375 0.8125 0 0 Z " fill="#B95561" transform="translate(92,80)"/>
<path d="M0 0 C0 0.99 0 1.98 0 3 C0.66 3.33 1.32 3.66 2 4 C-0.31 5.65 -2.62 7.3 -5 9 C-5.66 8.67 -6.32 8.34 -7 8 C-6.34 7.01 -5.68 6.02 -5 5 C-5 4.01 -5 3.02 -5 2 C-2 0 -2 0 0 0 Z " fill="#C6727A" transform="translate(70,98)"/>
<path d="M0 0 C0.66 0.33 1.32 0.66 2 1 C1.01 1.33 0.02 1.66 -1 2 C-1 2.66 -1 3.32 -1 4 C-0.05125 3.484375 0.8975 2.96875 1.875 2.4375 C2.90625 1.963125 3.9375 1.48875 5 1 C5.66 1.33 6.32 1.66 7 2 C3.6659053 4.19097652 0.95820859 5.43454163 -3 6 C-3 5.34 -3 4.68 -3 4 C-3.66 3.67 -4.32 3.34 -5 3 C-2.625 1.4375 -2.625 1.4375 0 0 Z " fill="#BF626B" transform="translate(56,106)"/>
<path d="M0 0 C-3.16566573 2.11044382 -5.51197415 2.75552077 -9.1875 3.625 C-10.27417969 3.88539062 -11.36085938 4.14578125 -12.48046875 4.4140625 C-13.31191406 4.60742188 -14.14335938 4.80078125 -15 5 C-10.43683393 0.09336982 -6.54864441 -0.19260719 0 0 Z " fill="#A41724" transform="translate(114,76)"/>
<path d="M0 0 C2.97 0.33 5.94 0.66 9 1 C9.33 1.99 9.66 2.98 10 4 C6.7 3.34 3.4 2.68 0 2 C0 1.34 0 0.68 0 0 Z " fill="#AE3541" transform="translate(38,72)"/>
<path d="M0 0 C0.66 0.33 1.32 0.66 2 1 C0.54744301 4.82946843 -1.42895561 6.12050295 -5 8 C-3.62845496 5.04590299 -2.01136276 2.55991624 0 0 Z " fill="#FAF4F5" transform="translate(109,68)"/>
<path d="M0 0 C0.66 0.33 1.32 0.66 2 1 C0.95125002 3.62187494 0.35068687 4.79371361 -2.125 6.25 C-2.74375 6.4975 -3.3625 6.745 -4 7 C-2.79618552 4.50638429 -1.54571278 2.31856917 0 0 Z " fill="#FAF4F5" transform="translate(99,76)"/>
</svg>
