<?xml version="1.0" encoding="UTF-8"?>
<svg version="1.1" xmlns="http://www.w3.org/2000/svg" width="198" height="202">
<path d="M0 0 C1.15378143 -0.00671722 2.30756287 -0.01343445 3.49630737 -0.02035522 C7.3012933 -0.03931459 11.10610262 -0.04325853 14.91113281 -0.04541016 C16.89390836 -0.05021358 18.87668395 -0.05502078 20.85945821 -0.06033099 C27.09219085 -0.07658302 33.32486578 -0.08150296 39.55761719 -0.08007812 C45.96230522 -0.07887819 52.36665548 -0.09995753 58.77125812 -0.13156545 C64.29086203 -0.15782343 69.81035629 -0.16844142 75.3300221 -0.16716731 C78.61737715 -0.16666035 81.90436662 -0.17406891 85.19167328 -0.19352341 C88.86504236 -0.21322604 92.53755315 -0.20732733 96.2109375 -0.1953125 C97.28248077 -0.20655151 98.35402405 -0.21779053 99.45803833 -0.22937012 C112.04100762 -0.12534148 123.75654939 4.9069958 133.05175781 13.41552734 C143.30931135 24.42481648 146.83224363 37.38729821 146.76831055 52.07324219 C146.7751738 53.19513443 146.78203705 54.31702667 146.78910828 55.47291565 C146.80727821 59.14923068 146.80355244 62.82511492 146.79785156 66.50146484 C146.80241819 69.07777036 146.8077252 71.65407465 146.81373596 74.2303772 C146.82264799 79.61832227 146.82050268 85.00610459 146.81030273 90.39404297 C146.79883152 96.58975941 146.8128932 102.78504245 146.83969921 108.9807018 C146.86466967 114.98057219 146.86701003 120.98022238 146.86058235 126.98015213 C146.86042976 129.51488592 146.86642187 132.0496283 146.87887383 134.58433151 C147.00906464 165.42888329 147.00906464 165.42888329 136.36425781 179.29052734 C135.78675781 180.15677734 135.20925781 181.02302734 134.61425781 181.91552734 C126.66114779 190.31047681 114.660524 196.76514 102.98933411 197.42474842 C102.16277817 197.4290219 101.33622223 197.43329538 100.48461914 197.43769836 C99.52890518 197.44485367 98.57319122 197.45200897 97.58851624 197.4593811 C96.55158127 197.46207001 95.5146463 197.46475891 94.44628906 197.4675293 C93.34478012 197.47410049 92.24327118 197.48067169 91.10838318 197.48744202 C87.46450731 197.50714386 83.82067267 197.51883261 80.17675781 197.52880859 C78.92882446 197.53288412 77.68089111 197.53695965 76.3951416 197.54115868 C70.46684386 197.55986135 64.5385591 197.57442752 58.61023903 197.58277065 C51.79863083 197.59251834 44.98734972 197.61877813 38.17585659 197.65927154 C32.25187824 197.69326238 26.32797841 197.70493149 20.40390015 197.70897484 C17.89706204 197.7138261 15.39022705 197.72539801 12.88345337 197.74401283 C-5.85003775 197.87444454 -21.64369599 197.40465116 -36.14355469 183.96630859 C-47.60406766 171.91953175 -50.77851894 158.74592236 -50.796875 142.60449219 C-50.8018399 141.55145905 -50.80680481 140.4984259 -50.81192017 139.41348267 C-50.82647897 135.94280331 -50.83333391 132.47216968 -50.83886719 129.00146484 C-50.84462452 126.5763855 -50.85038217 124.15130615 -50.85614014 121.72622681 C-50.86663277 116.64397979 -50.87248657 111.56174851 -50.87597656 106.47949219 C-50.8814526 99.99363828 -50.90546921 93.5079952 -50.93394852 87.02220726 C-50.95265027 82.01192636 -50.95778454 77.00169544 -50.95931244 71.9913826 C-50.96232331 69.60178095 -50.97029835 67.21217985 -50.98349762 64.82261276 C-51.08426015 45.17597215 -50.66981575 28.5960007 -36.51074219 13.47802734 C-25.84653088 3.30779857 -14.31837265 -0.01202046 0 0 Z M105.36425781 59.29052734 C104.70425781 59.95052734 104.04425781 60.61052734 103.36425781 61.29052734 C100.76269531 61.70458984 100.76269531 61.70458984 97.73925781 61.91552734 C96.73636719 61.99029297 95.73347656 62.06505859 94.70019531 62.14208984 C93.54390625 62.21556641 93.54390625 62.21556641 92.36425781 62.29052734 C95.45235477 64.05515417 96.59737917 64.29052734 100.36425781 64.29052734 C100.36425781 64.95052734 100.36425781 65.61052734 100.36425781 66.29052734 C101.02425781 66.29052734 101.68425781 66.29052734 102.36425781 66.29052734 C103.02425781 68.60052734 103.68425781 70.91052734 104.36425781 73.29052734 C105.26733232 70.58130382 105.4740256 69.06357112 105.42675781 66.29052734 C105.41773438 65.60990234 105.40871094 64.92927734 105.39941406 64.22802734 C105.3878125 63.58865234 105.37621094 62.94927734 105.36425781 62.29052734 C105.36425781 61.30052734 105.36425781 60.31052734 105.36425781 59.29052734 Z M37.51098633 67.03466797 C36.86622849 67.21998581 36.22147064 67.40530365 35.55717468 67.59623718 C33.44983849 68.20428621 31.34660017 68.82538452 29.24316406 69.44677734 C27.77366875 69.87357662 26.30393301 70.29954884 24.83396912 70.72473145 C20.98304722 71.84099019 17.13547657 72.96839181 13.28851318 74.09820557 C9.35545056 75.25113823 5.4192982 76.39341934 1.48339844 77.53662109 C-6.22603215 79.77755469 -13.93195242 82.03027852 -21.63574219 84.29052734 C-21.63574219 85.28052734 -21.63574219 86.27052734 -21.63574219 87.29052734 C-12.82151196 89.98245571 -3.99891272 92.644336 4.83558464 95.26899242 C8.93822434 96.48885861 13.03732971 97.71859545 17.12988281 98.97192383 C21.08462231 100.18263488 25.04662629 101.36605905 29.01492691 102.53151894 C30.5223326 102.97929032 32.02694603 103.43658252 33.52843857 103.90379906 C44.37924793 107.30599643 44.37924793 107.30599643 55.40298462 105.32641602 C58.61500658 103.62991745 61.22903967 101.58491594 63.86425781 99.10302734 C64.96998125 98.11487491 66.076763 97.1279055 67.18457031 96.14208984 C67.71985352 95.65772461 68.25513672 95.17335938 68.80664062 94.67431641 C71.04659356 92.68433941 73.38549021 90.83099333 75.73925781 88.97802734 C81.66240257 84.26533318 81.66240257 84.26533318 87.36425781 79.29052734 C87.36425781 78.63052734 87.36425781 77.97052734 87.36425781 77.29052734 C88.02425781 76.96052734 88.68425781 76.63052734 89.36425781 76.29052734 C84.08417771 74.71180897 78.80058619 73.14566895 73.51342773 71.59082031 C71.71717298 71.06069309 69.92190601 70.52720641 68.12768555 69.99023438 C65.54113198 69.21677952 62.9512086 68.455674 60.36035156 67.69677734 C59.16773964 67.33585999 59.16773964 67.33585999 57.95103455 66.96765137 C57.19077469 66.7474231 56.43051483 66.52719482 55.6472168 66.30029297 C54.98769516 66.10487915 54.32817352 65.90946533 53.64866638 65.70812988 C47.94242144 64.6649967 43.02105842 65.42712294 37.51098633 67.03466797 Z M94.36425781 71.29052734 C94.69425781 72.28052734 95.02425781 73.27052734 95.36425781 74.29052734 C95.69425781 73.30052734 96.02425781 72.31052734 96.36425781 71.29052734 C95.70425781 71.29052734 95.04425781 71.29052734 94.36425781 71.29052734 Z M90.36425781 77.29052734 C89.80480469 77.88478516 89.24535156 78.47904297 88.66894531 79.09130859 C82.28113782 85.69478161 75.48780444 91.28831091 68.20849609 96.86083984 C65.75790316 98.76058464 63.35594595 100.71712266 60.95117188 102.67431641 C45.55935167 115.16943042 29.29716192 127.65412874 11.36425781 136.29052734 C14.50901177 137.71657381 14.50901177 137.71657381 17.96191406 135.65771484 C19.45819585 134.84148396 20.94596361 134.00953004 22.42675781 133.16552734 C23.22243164 132.71685303 24.01810547 132.26817871 24.83789062 131.8059082 C38.93473856 123.6695934 51.68183493 113.43965219 64.36425781 103.29052734 C65.26660156 102.58283203 66.16894531 101.87513672 67.09863281 101.14599609 C75.68228132 94.38837219 83.75348955 87.12810658 91.36425781 79.29052734 C90.86925781 78.30052734 90.86925781 78.30052734 90.36425781 77.29052734 Z M91.35644531 80.16162109 C90.65777344 81.00853516 89.95910156 81.85544922 89.23925781 82.72802734 C85.28501664 87.33694421 81.0958006 91.38563834 76.52832031 95.38037109 C74.73421695 96.96397497 73.04506242 98.5901785 71.36425781 100.29052734 C80.69387842 98.04329671 89.93708999 95.5189928 99.16821289 92.90161133 C100.77595271 92.44726797 102.38470666 91.99650003 103.99438477 91.54907227 C106.34255365 90.89629124 108.68762477 90.23333422 111.03222656 89.56787109 C111.7550029 89.36886703 112.47777924 89.16986298 113.22245789 88.96482849 C114.9547453 88.46660791 116.66291242 87.88589889 118.36425781 87.29052734 C118.69425781 86.63052734 119.02425781 85.97052734 119.36425781 85.29052734 C115.78396734 84.114376 112.1995699 82.95127213 108.61425781 81.79052734 C107.59847656 81.45666016 106.58269531 81.12279297 105.53613281 80.77880859 C104.55644531 80.46298828 103.57675781 80.14716797 102.56738281 79.82177734 C101.66665039 79.52851562 100.76591797 79.23525391 99.83789062 78.93310547 C96.24853593 78.00069513 94.17306403 77.53679548 91.35644531 80.16162109 Z M-18.63574219 90.29052734 C-18.68472656 91.60408203 -18.73371094 92.91763672 -18.78417969 94.27099609 C-18.85923686 96.00669329 -18.93478341 97.74236937 -19.01074219 99.47802734 C-19.04167969 100.34234375 -19.07261719 101.20666016 -19.10449219 102.09716797 C-19.31283741 106.62867658 -19.76181209 110.10541679 -21.63574219 114.29052734 C-21.33486503 117.51880971 -21.33486503 117.51880971 -20.63574219 120.29052734 C-18.23854787 120.97011337 -18.23854787 120.97011337 -15.63574219 121.29052734 C-13.31090434 119.40677059 -13.31090434 119.40677059 -13.44824219 116.29052734 C-13.4349461 113.36666132 -13.4349461 113.36666132 -14.63574219 111.29052734 C-14.75155001 109.86641385 -14.81421502 108.43772291 -14.84667969 107.00927734 C-14.88921875 105.74664062 -14.88921875 105.74664062 -14.93261719 104.45849609 C-14.98469433 102.6800617 -15.02896772 100.90138164 -15.06542969 99.12255859 C-15.09636719 98.28080078 -15.12730469 97.43904297 -15.15917969 96.57177734 C-15.17899902 95.79898438 -15.19881836 95.02619141 -15.21923828 94.22998047 C-15.48683034 91.88638809 -15.48683034 91.88638809 -18.63574219 90.29052734 Z M5.36425781 97.29052734 C5.24019774 101.328778 5.14970737 105.36628372 5.08959961 109.40600586 C5.06453164 110.77859836 5.03046699 112.15105836 4.98706055 113.52319336 C4.9260825 115.50103431 4.90064772 117.47986918 4.87597656 119.45849609 C4.84979248 120.64725342 4.8236084 121.83601074 4.79663086 123.06079102 C5.52879952 127.22675194 7.15945511 128.63087303 10.36425781 131.29052734 C12.62167197 133.03858691 12.62167197 133.03858691 15.36425781 133.29052734 C18.09368641 132.02439286 20.27911053 130.77714874 22.73925781 129.10302734 C23.43172607 128.65048584 24.12419434 128.19794434 24.83764648 127.73168945 C37.78437081 119.35752653 37.78437081 119.35752653 49.36425781 109.29052734 C44.38416511 107.90164162 39.4036843 106.51415914 34.42285156 105.12792969 C32.73134003 104.65695348 31.03993191 104.1856057 29.34863281 103.71386719 C26.90620112 103.03269373 24.46339061 102.3528935 22.02050781 101.67333984 C20.90125916 101.36071701 20.90125916 101.36071701 19.75939941 101.04177856 C14.97856477 99.71365751 10.1824959 98.47604245 5.36425781 97.29052734 Z M49.50146484 116.49462891 C45.77965356 119.6220728 41.74050915 122.25734023 37.67675781 124.91552734 C36.94569824 125.39989258 36.21463867 125.88425781 35.46142578 126.38330078 C31.1833328 129.1904588 26.83175911 131.79622124 22.36425781 134.29052734 C22.36425781 134.95052734 22.36425781 135.61052734 22.36425781 136.29052734 C43.08184803 140.90664824 69.97256257 142.90978902 89.36425781 132.29052734 C92.67250593 129.58694259 94.20197144 128.13055911 95.02368164 123.87719727 C95.03939209 122.60465088 95.05510254 121.33210449 95.07128906 120.02099609 C95.09397102 118.99949211 95.09397102 118.99949211 95.11711121 117.95735168 C95.15985859 115.79723672 95.16881216 113.63852242 95.17675781 111.47802734 C95.1999127 110.00728732 95.22528012 108.53658036 95.25292969 107.06591797 C95.31564941 103.47414763 95.34808906 99.88284331 95.36425781 96.29052734 C78.13796597 96.29052734 61.86780062 105.53041867 49.50146484 116.49462891 Z " fill="#A41B2F" transform="translate(51.6357421875,-0.29052734375)"/>
<path d="M0 0 C4.95 0.495 4.95 0.495 10 1 C10 1.66 10 2.32 10 3 C10.66 3 11.32 3 12 3 C12.99 5.97 12.99 5.97 14 9 C12.68 8.34 11.36 7.68 10 7 C9.67 7.33 9.34 7.66 9 8 C7.33382885 8.04063832 5.66611905 8.042721 4 8 C3.88551514 8.60126709 3.77103027 9.20253418 3.65307617 9.82202148 C2.59410735 13.35363303 -0.11075279 15.54940834 -2.6875 18.0625 C-3.26838379 18.63540771 -3.84926758 19.20831543 -4.44775391 19.79858398 C-10.02681413 25.20044811 -16.02329146 29.9333083 -22.20410156 34.61865234 C-24.64174498 36.49360972 -27.02206704 38.43531369 -29.40649414 40.37719727 C-62.67739154 67.40897525 -62.67739154 67.40897525 -82 75 C-82.33 74.34 -82.66 73.68 -83 73 C-80.525 72.505 -80.525 72.505 -78 72 C-78 71.34 -78 70.68 -78 70 C-78.7425 69.79375 -79.485 69.5875 -80.25 69.375 C-83.92129697 67.53935152 -85.02724411 65.57893483 -87 62 C-87.45410156 58.56494141 -87.45410156 58.56494141 -87.390625 54.8515625 C-87.38496521 54.19417084 -87.37930542 53.53677917 -87.37347412 52.85946655 C-87.35126275 50.78053809 -87.3011042 48.70339837 -87.25 46.625 C-87.22991489 45.20705632 -87.21166765 43.78908535 -87.1953125 42.37109375 C-87.15145067 38.91349123 -87.08253437 35.45692049 -87 32 C-87.93070313 31.85691406 -88.86140625 31.71382812 -89.8203125 31.56640625 C-92.79747542 31.03607625 -95.24411238 30.21583278 -98 29 C-94.48690592 27.82896864 -93.50466292 28.22756398 -90.04467773 29.31103516 C-89.03610214 29.62110504 -88.02752655 29.93117493 -86.98838806 30.25064087 C-85.89780594 30.59332001 -84.80722382 30.93599915 -83.68359375 31.2890625 C-81.36947771 31.99069605 -79.05501293 32.69118025 -76.74023438 33.390625 C-73.09163313 34.50248629 -69.44618088 35.62228011 -65.80639648 36.76269531 C-62.29337693 37.85891607 -58.77121975 38.92002587 -55.24609375 39.9765625 C-54.16968124 40.3232901 -53.09326874 40.6700177 -51.98423767 41.0272522 C-44.85236141 43.12926348 -39.79389686 43.23749503 -33 40 C-30.61166419 38.45588537 -28.56803695 36.76050497 -26.5 34.8125 C-25.39694786 33.82557583 -24.29276895 32.83990965 -23.1875 31.85546875 C-22.38505859 31.1291626 -22.38505859 31.1291626 -21.56640625 30.38818359 C-19.28742481 28.36850023 -16.89906581 26.49927016 -14.5 24.625 C-11.84424857 22.52971559 -9.3438903 20.43928118 -7 18 C-6.34 17.34 -5.68 16.68 -5 16 C-4.34 16 -3.68 16 -3 16 C-3.495 14.515 -3.495 14.515 -4 13 C-7.51190809 11.77030122 -7.51190809 11.77030122 -11 11 C-11 10.34 -11 9.68 -11 9 C-6.05 9.99 -6.05 9.99 -1 11 C-0.67 10.01 -0.34 9.02 0 8 C0.99 7.67 1.98 7.34 3 7 C2.01 6.67 1.02 6.34 0 6 C0.969375 5.71125 1.93875 5.4225 2.9375 5.125 C6.10664203 4.35785318 6.10664203 4.35785318 7 2 C4.69 1.67 2.38 1.34 0 1 C0 0.67 0 0.34 0 0 Z M-85 34 C-85.12406007 38.03825066 -85.21455045 42.07575638 -85.2746582 46.11547852 C-85.29972617 47.48807102 -85.33379082 48.86053102 -85.37719727 50.23266602 C-85.43817531 52.21050696 -85.46361009 54.18934184 -85.48828125 56.16796875 C-85.51446533 57.35672607 -85.54064941 58.5454834 -85.56762695 59.77026367 C-84.8354583 63.9362246 -83.20480271 65.34034569 -80 68 C-77.74258584 69.74805957 -77.74258584 69.74805957 -75 70 C-72.2705714 68.73386552 -70.08514728 67.4866214 -67.625 65.8125 C-66.93253174 65.3599585 -66.24006348 64.90741699 -65.52661133 64.44116211 C-52.579887 56.06699919 -52.579887 56.06699919 -41 46 C-45.9800927 44.61111428 -50.96057351 43.2236318 -55.94140625 41.83740234 C-57.63291778 41.36642614 -59.3243259 40.89507835 -61.015625 40.42333984 C-63.45805669 39.74216638 -65.9008672 39.06236615 -68.34375 38.3828125 C-69.46299866 38.07018967 -69.46299866 38.07018967 -70.6048584 37.75125122 C-75.38569304 36.42313017 -80.18176191 35.1855151 -85 34 Z " fill="#821A27" transform="translate(142,63)"/>
<path d="M0 0 C0 0.66 0 1.32 0 2 C-0.71285156 2.3403125 -1.42570312 2.680625 -2.16015625 3.03125 C-8.22414448 6.09997082 -12.51337179 9.04679838 -16.66015625 14.4609375 C-17.32337891 15.22277344 -17.32337891 15.22277344 -18 16 C-18.66 16 -19.32 16 -20 16 C-24.48623642 24.65582153 -24.48623642 24.65582153 -27 34 C-27.33 34.99 -27.66 35.98 -28 37 C-28.09151634 38.58306603 -28.12628106 40.1697232 -28.12698364 41.75543213 C-28.12980347 42.73389603 -28.13262329 43.71235992 -28.13552856 44.72047424 C-28.13350433 45.79272751 -28.1314801 46.86498077 -28.12939453 47.96972656 C-28.13114685 49.10008835 -28.13289917 50.23045013 -28.13470459 51.39506531 C-28.13911693 55.14360068 -28.13618647 58.89208912 -28.1328125 62.640625 C-28.1334859 65.24273691 -28.13445624 67.84484876 -28.13571167 70.44696045 C-28.13753182 75.9078421 -28.13513217 81.36871024 -28.13037109 86.82958984 C-28.12493966 93.13189731 -28.1266836 99.43417237 -28.1321975 105.73647904 C-28.13729489 111.80678373 -28.13673885 117.87707413 -28.13381577 123.94738007 C-28.13314909 126.5261409 -28.13396585 129.10490255 -28.13629532 131.68366241 C-28.1388394 135.29336217 -28.1349559 138.90300014 -28.12939453 142.51269531 C-28.13141876 143.57685165 -28.13344299 144.641008 -28.13552856 145.7374115 C-28.12079224 150.90978322 -28.09924916 155.93143634 -27 161 C-26.34 161.33 -25.68 161.66 -25 162 C-24.25390625 163.671875 -24.25390625 163.671875 -23.5625 165.75 C-22.37854119 169.10857703 -20.96291895 172.00888541 -19 175 C-23.79774773 173.1625647 -24.81824168 169.97487899 -26.8984375 165.52734375 C-30.70476664 156.79438293 -31.15045829 148.70062373 -31.16113281 139.31396484 C-31.16609772 138.2609317 -31.17106262 137.20789856 -31.17617798 136.12295532 C-31.19073678 132.65227596 -31.19759172 129.18164233 -31.203125 125.7109375 C-31.20888233 123.28585815 -31.21463999 120.86077881 -31.22039795 118.43569946 C-31.23089058 113.35345244 -31.23674438 108.27122116 -31.24023438 103.18896484 C-31.24571041 96.70311093 -31.26972703 90.21746786 -31.29820633 83.73167992 C-31.31690808 78.72139902 -31.32204235 73.7111681 -31.32357025 68.70085526 C-31.32658112 66.31125361 -31.33455617 63.92165251 -31.34775543 61.53208542 C-31.44787533 42.01074541 -31.17634476 24.91325261 -16.6875 10.125 C-6.08449571 0 -6.08449571 0 0 0 Z " fill="#7E1223" transform="translate(32,3)"/>
<path d="M0 0 C0.33 0.66 0.66 1.32 1 2 C-4.02057953 14.87378174 -11.6805202 23.49693878 -24.13671875 29.515625 C-30.42286653 32.2063746 -35.99811219 34.11159197 -42.87963867 34.14717102 C-43.83535263 34.15432632 -44.79106659 34.16148163 -45.77574158 34.16885376 C-46.81267654 34.17154266 -47.84961151 34.17423157 -48.91796875 34.17700195 C-50.01947769 34.18357315 -51.12098663 34.19014435 -52.25587463 34.19691467 C-55.8997505 34.21661652 -59.54358514 34.22830526 -63.1875 34.23828125 C-64.43543335 34.24235678 -65.6833667 34.2464323 -66.96911621 34.25063133 C-72.89741396 34.26933401 -78.82569871 34.28390018 -84.75401878 34.2922433 C-91.56562698 34.301991 -98.37690809 34.32825078 -105.18840122 34.36874419 C-111.11237957 34.40273504 -117.03627941 34.41440415 -122.96035767 34.41844749 C-125.46719577 34.42329875 -127.97403076 34.43487067 -130.48080444 34.45348549 C-158.79905354 34.65065096 -158.79905354 34.65065096 -171 27 C-170.67 26.34 -170.34 25.68 -170 25 C-169.50371094 25.26554687 -169.00742188 25.53109375 -168.49609375 25.8046875 C-167.47708984 26.33449219 -167.47708984 26.33449219 -166.4375 26.875 C-165.77621094 27.22304687 -165.11492187 27.57109375 -164.43359375 27.9296875 C-157.36453451 31.03871195 -151.08381288 31.2923251 -143.44018555 31.2746582 C-142.29455139 31.27976913 -141.14891724 31.28488007 -139.96856689 31.29014587 C-136.19123064 31.30401589 -132.41407741 31.30308684 -128.63671875 31.30078125 C-126.0026696 31.30466992 -123.36862108 31.30900494 -120.73457336 31.31376648 C-115.21601752 31.32196673 -109.6975129 31.32108039 -104.17895508 31.31567383 C-97.82088078 31.30964003 -91.46302811 31.32193467 -85.10499161 31.3432439 C-78.96525702 31.36305689 -72.82562524 31.36602488 -66.68586159 31.36250877 C-64.08445529 31.36302087 -61.48304536 31.3682375 -58.88165855 31.37832069 C-55.23693354 31.39071326 -51.59271548 31.38387562 -47.94799805 31.37231445 C-46.34931633 31.38378006 -46.34931633 31.38378006 -44.71833801 31.39547729 C-32.55109848 31.31054988 -22.49896304 27.61274081 -13.25 19.625 C-7.98804207 13.48604908 -3.74959705 7.16737135 0 0 Z " fill="#7E1124" transform="translate(195,163)"/>
<path d="M0 0 C0.87011719 0.23396484 1.74023438 0.46792969 2.63671875 0.70898438 C4.75914728 1.28040744 6.88013594 1.85664957 9 2.4375 C9 3.0975 9 3.7575 9 4.4375 C2.79320872 3.29308078 -3.22527038 1.87376006 -9.26171875 0.0234375 C-15.10932289 -1.227833 -20.17476913 -0.47504336 -25.85327148 1.18164062 C-26.82040825 1.45961739 -26.82040825 1.45961739 -27.80708313 1.74320984 C-29.91441932 2.35125887 -32.01765764 2.97235718 -34.12109375 3.59375 C-35.59058906 4.02054927 -37.06032481 4.4465215 -38.5302887 4.8717041 C-42.38121059 5.98796285 -46.22878125 7.11536446 -50.07574463 8.24517822 C-54.00880725 9.39811088 -57.94495962 10.540392 -61.88085938 11.68359375 C-69.59028996 13.92452734 -77.29621023 16.17725118 -85 18.4375 C-81.98509443 20.44743705 -79.7850073 21.16373341 -76.3125 22.0625 C-75.31863281 22.32289062 -74.32476562 22.58328125 -73.30078125 22.8515625 C-72.16189453 23.14160156 -72.16189453 23.14160156 -71 23.4375 C-71 23.7675 -71 24.0975 -71 24.4375 C-72.65 24.7675 -74.3 25.0975 -76 25.4375 C-77.21229204 34.71982508 -77.21229204 34.71982508 -76 43.875 C-74.83627681 48.02076385 -75.13622773 50.2913931 -76 54.4375 C-79.25 55.1875 -79.25 55.1875 -83 55.4375 C-85.94572605 53.26696501 -86.84060941 51.91567177 -88 48.4375 C-87.34 48.4375 -86.68 48.4375 -86 48.4375 C-85.08341617 45.26696805 -84.81167961 42.30926138 -84.68359375 39.015625 C-84.64169922 37.99082031 -84.59980469 36.96601562 -84.55664062 35.91015625 C-84.51732422 34.84667969 -84.47800781 33.78320312 -84.4375 32.6875 C-84.39431641 31.60855469 -84.35113281 30.52960938 -84.30664062 29.41796875 C-84.20071011 26.75793572 -84.09863579 24.09781188 -84 21.4375 C-85.32 20.7775 -86.64 20.1175 -88 19.4375 C-84.4629425 14.99361127 -80.52997877 14.07482358 -75.265625 12.66796875 C-74.40313141 12.42582642 -73.54063782 12.18368408 -72.65200806 11.9342041 C-69.85469278 11.15176723 -67.05267986 10.38797529 -64.25 9.625 C-61.37476063 8.82914483 -58.50054341 8.02966634 -55.62631226 7.23017883 C-53.72836774 6.7028299 -51.82995102 6.17717739 -49.93106079 5.65324402 C-44.65146746 4.19324572 -39.39886569 2.6758031 -34.1640625 1.0625 C-33.07448242 0.72839111 -31.98490234 0.39428223 -30.86230469 0.05004883 C-28.94002862 -0.54520322 -27.02105652 -1.15128912 -25.10644531 -1.77075195 C-16.11690638 -4.51870229 -8.82097674 -2.41865491 0 0 Z M-82 23.4375 C-82.04898438 24.75105469 -82.09796875 26.06460938 -82.1484375 27.41796875 C-82.22349468 29.15366595 -82.29904123 30.88934203 -82.375 32.625 C-82.4059375 33.48931641 -82.436875 34.35363281 -82.46875 35.24414062 C-82.67709522 39.77564923 -83.1260699 43.25238944 -85 47.4375 C-84.69912284 50.66578237 -84.69912284 50.66578237 -84 53.4375 C-81.60280568 54.11708603 -81.60280568 54.11708603 -79 54.4375 C-76.67516215 52.55374325 -76.67516215 52.55374325 -76.8125 49.4375 C-76.79920391 46.51363397 -76.79920391 46.51363397 -78 44.4375 C-78.11580782 43.01338651 -78.17847283 41.58469557 -78.2109375 40.15625 C-78.25347656 38.89361328 -78.25347656 38.89361328 -78.296875 37.60546875 C-78.34895214 35.82703436 -78.39322553 34.0483543 -78.4296875 32.26953125 C-78.460625 31.42777344 -78.4915625 30.58601563 -78.5234375 29.71875 C-78.54325684 28.94595703 -78.56307617 28.17316406 -78.58349609 27.37695312 C-78.85108816 25.03336074 -78.85108816 25.03336074 -82 23.4375 Z " fill="#801727" transform="translate(115,66.5625)"/>
<path d="M0 0 C0.495 0.99 0.495 0.99 1 2 C2.77865083 2.20925304 4.55810468 2.41266581 6.33984375 2.59375 C13.43685602 3.67758154 21.46939775 5.20863666 27 10 C20.08907347 8.81437829 13.54060012 7.00255956 6.8828125 4.8046875 C3.8567152 3.82076314 3.8567152 3.82076314 0 4 C-1.59732974 5.37126025 -1.59732974 5.37126025 -3 7.3125 C-6.20976588 11.22462165 -9.69333222 14.61386001 -13.4375 18 C-13.98212891 18.49282471 -14.52675781 18.98564941 -15.08789062 19.4934082 C-16.38883719 20.66571021 -17.69396917 21.83336491 -19 23 C-14.51471135 22.1595613 -10.10942057 21.05582308 -5.6875 19.9375 C-4.94693359 19.75123047 -4.20636719 19.56496094 -3.44335938 19.37304688 C-1.62863559 18.91643895 0.18571971 18.45836694 2 18 C2.495 18.99 2.495 18.99 3 20 C-1.0586198 21.92429666 -4.92604762 23.29690697 -9.30078125 24.33203125 C-23.50484934 27.75949865 -32.81966802 32.702384 -43.80273438 42.18798828 C-47.55304394 45.28074357 -51.5702555 47.95127988 -55.625 50.625 C-56.3473584 51.10928467 -57.0697168 51.59356934 -57.81396484 52.0925293 C-62.3917863 55.10946371 -67.05463541 57.6328929 -72 60 C-72.33 59.34 -72.66 58.68 -73 58 C-71.89785156 57.35675781 -70.79570313 56.71351563 -69.66015625 56.05078125 C-59.25103884 49.88610213 -49.61242264 43.15748702 -40.12646484 35.66162109 C-37.97586503 33.98114092 -35.80058684 32.33938505 -33.61328125 30.70703125 C-21.30448244 21.50560077 -9.89379746 11.83668821 0 0 Z " fill="#7F1E26" transform="translate(145,75)"/>
<path d="M0 0 C0.33 0 0.66 0 1 0 C1.02918874 3.70831663 1.04686218 7.41660342 1.0625 11.125 C1.07087891 12.17171875 1.07925781 13.2184375 1.08789062 14.296875 C1.10379129 19.32148631 1.02890737 24.05800398 0 29 C0 29.66 0 30.32 0 31 C1.66611905 31.042721 3.33382885 31.04063832 5 31 C6.33648017 29.88898816 6.33648017 29.88898816 6.125 27.0625 C6.21325664 24.08454272 6.21325664 24.08454272 5 22 C4.84824451 20.40737934 4.75099675 18.80935144 4.68359375 17.2109375 C4.64169922 16.26992187 4.59980469 15.32890625 4.55664062 14.359375 C4.51732422 13.37453125 4.47800781 12.3896875 4.4375 11.375 C4.37272461 9.88613281 4.37272461 9.88613281 4.30664062 8.3671875 C4.20038931 5.91160162 4.09835036 3.45591297 4 1 C5.32 1.33 6.64 1.66 8 2 C7.85691406 3.485 7.85691406 3.485 7.7109375 5 C6.80909925 13.31297277 6.80909925 13.31297277 8 21.5 C9.17455009 25.61092533 8.85825106 27.88039491 8 32 C4.75 32.75 4.75 32.75 1 33 C-1.94572605 30.82946501 -2.84060941 29.47817177 -4 26 C-3.34 26 -2.68 26 -2 26 C-1.11126403 22.90049377 -0.81456218 20.01495633 -0.68359375 16.796875 C-0.64169922 15.8171875 -0.59980469 14.8375 -0.55664062 13.828125 C-0.51732422 12.81234375 -0.47800781 11.7965625 -0.4375 10.75 C-0.39431641 9.71875 -0.35113281 8.6875 -0.30664062 7.625 C-0.20074318 5.0834613 -0.09866557 2.54182804 0 0 Z " fill="#891226" transform="translate(31,89)"/>
<path d="M0 0 C-1.37012083 3.21868286 -2.7633115 4.86556975 -5.60546875 6.8828125 C-6.33483643 7.40576904 -7.0642041 7.92872559 -7.81567383 8.4675293 C-8.59837646 9.01449463 -9.3810791 9.56145996 -10.1875 10.125 C-10.98889404 10.69323486 -11.79028809 11.26146973 -12.6159668 11.84692383 C-15.0685553 13.5775781 -17.53149218 15.29214282 -20 17 C-20.73766602 17.51062988 -21.47533203 18.02125977 -22.23535156 18.54736328 C-24.25463608 19.93719386 -26.2807965 21.315901 -28.3125 22.6875 C-28.91537842 23.09693848 -29.51825684 23.50637695 -30.1394043 23.92822266 C-33.32047738 26.04293121 -36.39242062 27.73430142 -40 29 C-40.33 28.34 -40.66 27.68 -41 27 C-39.89785156 26.35675781 -38.79570313 25.71351563 -37.66015625 25.05078125 C-25.60596004 17.90874361 -14.59180309 9.85060711 -3.6484375 1.125 C-2 0 -2 0 0 0 Z " fill="#78252D" transform="translate(113,106)"/>
<path d="M0 0 C3.3 0.33 6.6 0.66 10 1 C10 1.66 10 2.32 10 3 C10.66 3 11.32 3 12 3 C12.66 4.98 13.32 6.96 14 9 C12.68 8.34 11.36 7.68 10 7 C9.67 7.33 9.34 7.66 9 8 C7.33382885 8.04063832 5.66611905 8.042721 4 8 C3.938125 8.5775 3.87625 9.155 3.8125 9.75 C2.67972699 12.88690987 0.65802405 14.09167504 -2 16 C-2 15.34 -2 14.68 -2 14 C-4.97 13.01 -7.94 12.02 -11 11 C-11 10.34 -11 9.68 -11 9 C-6.05 9.99 -6.05 9.99 -1 11 C-0.67 10.01 -0.34 9.02 0 8 C0.99 7.67 1.98 7.34 3 7 C2.01 6.67 1.02 6.34 0 6 C0.969375 5.71125 1.93875 5.4225 2.9375 5.125 C6.10664203 4.35785318 6.10664203 4.35785318 7 2 C4.69 1.67 2.38 1.34 0 1 C0 0.67 0 0.34 0 0 Z " fill="#8B1828" transform="translate(142,63)"/>
<path d="M0 0 C0.495 1.485 0.495 1.485 1 3 C-5.16964293 9.68697324 -12.09558288 15.14524671 -19.28125 20.67041016 C-21.83608096 22.64677513 -24.35595806 24.66582572 -26.875 26.6875 C-27.67679687 27.33074219 -28.47859375 27.97398438 -29.3046875 28.63671875 C-29.86414063 29.08660156 -30.42359375 29.53648438 -31 30 C-32.32 29.34 -33.64 28.68 -35 28 C-33.77410156 27.46632813 -33.77410156 27.46632813 -32.5234375 26.921875 C-28.06057633 24.68651814 -24.42092722 21.45154715 -20.625 18.25 C-19.90828125 17.65445313 -19.1915625 17.05890625 -18.453125 16.4453125 C-14.1684138 12.87214179 -9.96899539 9.22101693 -5.83740234 5.47167969 C-3.97766849 3.98211343 -2.16438272 2.98147374 0 2 C0 1.34 0 0.68 0 0 Z " fill="#7D252D" transform="translate(139,77)"/>
<path d="M0 0 C0 0.66 0 1.32 0 2 C-0.71285156 2.3403125 -1.42570312 2.680625 -2.16015625 3.03125 C-8.22414448 6.09997082 -12.51337179 9.04679838 -16.66015625 14.4609375 C-17.32337891 15.22277344 -17.32337891 15.22277344 -18 16 C-18.66 16 -19.32 16 -20 16 C-24.43308079 24.67002942 -24.43308079 24.67002942 -27 34 C-27.63437344 35.6792238 -28.29289322 37.35008418 -29 39 C-29.33 39 -29.66 39 -30 39 C-29.80531921 27.70851436 -24.46549494 17.82974738 -16.625 9.9375 C-5.99861726 0 -5.99861726 0 0 0 Z " fill="#841429" transform="translate(32,3)"/>
<path d="M0 0 C-1.36606218 3.21573188 -2.73010069 4.83084566 -5.59765625 6.8046875 C-6.31300537 7.30323242 -7.02835449 7.80177734 -7.76538086 8.31542969 C-8.52343018 8.83008789 -9.28147949 9.34474609 -10.0625 9.875 C-10.83021729 10.40512695 -11.59793457 10.93525391 -12.38891602 11.48144531 C-14.58714725 12.99579789 -16.79311105 14.49830809 -19 16 C-20.00804688 16.69867188 -21.01609375 17.39734375 -22.0546875 18.1171875 C-27.72099282 22 -27.72099282 22 -30 22 C-28.85238396 18.55715189 -28.22908974 18.21413803 -25.28125 16.328125 C-24.51748047 15.83151367 -23.75371094 15.33490234 -22.96679688 14.82324219 C-22.15275391 14.30407227 -21.33871094 13.78490234 -20.5 13.25 C-14.62728338 9.43573756 -8.91898453 5.59915378 -3.53125 1.109375 C-2 0 -2 0 0 0 Z " fill="#77252D" transform="translate(101,110)"/>
<path d="M0 0 C0.99 0.33 1.98 0.66 3 1 C2.67 3.64 2.34 6.28 2 9 C3.98 9 5.96 9 8 9 C8.33 10.32 8.66 11.64 9 13 C2.65492958 13.35915493 2.65492958 13.35915493 0.0625 11.9375 C-1.57850647 8.94507644 -1.23895351 6.3453492 -1 3 C-0.67 2.01 -0.34 1.02 0 0 Z " fill="#920A1D" transform="translate(50,128)"/>
<path d="M0 0 C0.7425 0.185625 1.485 0.37125 2.25 0.5625 C2.8275 0.706875 3.405 0.85125 4 1 C4 1.66 4 2.32 4 3 C1.36 3 -1.28 3 -4 3 C-4 3.66 -4 4.32 -4 5 C-4.66 5 -5.32 5 -6 5 C-6 4.34 -6 3.68 -6 3 C-6.66 3 -7.32 3 -8 3 C-8 2.34 -8 1.68 -8 1 C-4.88241926 -0.89281688 -3.44056457 -1.18269407 0 0 Z " fill="#951427" transform="translate(74,135)"/>
<path d="M0 0 C0 0.99 0 1.98 0 3 C-1.97956942 4.69088222 -3.97945196 6.35830472 -6 8 C-6 8.66 -6 9.32 -6 10 C-7.32 10.33 -8.64 10.66 -10 11 C-9.64701919 8.0991395 -9.11271704 7.10483324 -6.93359375 5.078125 C-6.10988281 4.47484375 -5.28617187 3.8715625 -4.4375 3.25 C-3.61121094 2.63640625 -2.78492187 2.0228125 -1.93359375 1.390625 C-1.29550781 0.93171875 -0.65742188 0.4728125 0 0 Z " fill="#8B2632" transform="translate(130,91)"/>
<path d="M0 0 C0.66 1.32 1.32 2.64 2 4 C1.01 5.32 0.02 6.64 -1 8 C-2.32 7.67 -3.64 7.34 -5 7 C-4.0409375 6.1028125 -4.0409375 6.1028125 -3.0625 5.1875 C-0.79689611 3.09189663 -0.79689611 3.09189663 0 0 Z " fill="#8C1829" transform="translate(146,124)"/>
<path d="M0 0 C3.625 0.375 3.625 0.375 7 1 C6.67 1.99 6.34 2.98 6 4 C3.36 3.34 0.72 2.68 -2 2 C-1.34 1.34 -0.68 0.68 0 0 Z " fill="#721D1C" transform="translate(78,101)"/>
<path d="M0 0 C1.32 0.33 2.64 0.66 4 1 C3.67 5.62 3.34 10.24 3 15 C2.67 15 2.34 15 2 15 C2 10.71 2 6.42 2 2 C1.34 2 0.68 2 0 2 C0 1.34 0 0.68 0 0 Z " fill="#991026" transform="translate(35,90)"/>
<path d="M0 0 C0.33 0.66 0.66 1.32 1 2 C2.65 2 4.3 2 6 2 C6.33 2.66 6.66 3.32 7 4 C5.88625 3.95875 4.7725 3.9175 3.625 3.875 C-0.04366025 3.58878141 -0.04366025 3.58878141 -2 6 C-2.33 5.34 -2.66 4.68 -3 4 C-2.01 2.68 -1.02 1.36 0 0 Z " fill="#87212D" transform="translate(145,75)"/>
<path d="M0 0 C0.33 0 0.66 0 1 0 C1.33 2.97 1.66 5.94 2 9 C0.68 9 -0.64 9 -2 9 C-2 8.34 -2 7.68 -2 7 C-1.34 7 -0.68 7 0 7 C-0.185625 6.030625 -0.37125 5.06125 -0.5625 4.0625 C-0.706875 3.051875 -0.85125 2.04125 -1 1 C-0.67 0.67 -0.34 0.34 0 0 Z " fill="#8A1023" transform="translate(157,66)"/>
<path d="M0 0 C3.3 0.33 6.6 0.66 10 1 C9.34 2.32 8.68 3.64 8 5 C7.34 4.67 6.68 4.34 6 4 C6.33 3.34 6.66 2.68 7 2 C4.69 1.67 2.38 1.34 0 1 C0 0.67 0 0.34 0 0 Z " fill="#7F1525" transform="translate(142,63)"/>
<path d="M0 0 C0.66 0 1.32 0 2 0 C2 1.65 2 3.3 2 5 C0.68 5.33 -0.64 5.66 -2 6 C-1.49396008 3.83125748 -1.00016187 2.00032373 0 0 Z " fill="#9B132B" transform="translate(148,71)"/>
</svg>
